<?xml version="1.0" encoding="UTF-8" standalone="no"?>
<!-- Generator: Adobe Illustrator 19.0.0, SVG Export Plug-In . SVG Version: 6.00 Build 0)  -->

<svg
   xmlns:dc="http://purl.org/dc/elements/1.1/"
   xmlns:cc="http://creativecommons.org/ns#"
   xmlns:rdf="http://www.w3.org/1999/02/22-rdf-syntax-ns#"
   xmlns:svg="http://www.w3.org/2000/svg"
   xmlns="http://www.w3.org/2000/svg"
   xmlns:sodipodi="http://sodipodi.sourceforge.net/DTD/sodipodi-0.dtd"
   xmlns:inkscape="http://www.inkscape.org/namespaces/inkscape"
   version="1.1"
   id="Layer_1"
   x="0px"
   y="0px"
   viewBox="0 0 512 512"
   style="enable-background:new 0 0 512 512;"
   xml:space="preserve"
   sodipodi:docname="Eloy buttermanager.svg"
   inkscape:version="0.92.3 (2405546, 2018-03-11)"><metadata
   id="metadata47"><rdf:RDF><cc:Work
       rdf:about=""><dc:format>image/svg+xml</dc:format><dc:type
         rdf:resource="http://purl.org/dc/dcmitype/StillImage" /><dc:title></dc:title></cc:Work></rdf:RDF></metadata><defs
   id="defs45" /><sodipodi:namedview
   pagecolor="#ffffff"
   bordercolor="#666666"
   borderopacity="1"
   objecttolerance="10"
   gridtolerance="10"
   guidetolerance="10"
   inkscape:pageopacity="0"
   inkscape:pageshadow="2"
   inkscape:window-width="1920"
   inkscape:window-height="1051"
   id="namedview43"
   showgrid="false"
   inkscape:zoom="0.921875"
   inkscape:cx="256.75942"
   inkscape:cy="326.20334"
   inkscape:window-x="0"
   inkscape:window-y="0"
   inkscape:window-maximized="1"
   inkscape:current-layer="Layer_1" />
<path
   style="fill:#C66500;"
   d="M496.318,127.692c-0.466-12.776-4.481-24.641-11.099-34.641  c-24.091-41.085-90.395-85.447-229.22-85.447S50.871,51.966,26.779,93.051c-6.617,10-10.632,21.865-11.099,34.641  c-0.039,0.843-0.064,1.677-0.064,2.499c0,29.098,18.44,53.888,44.271,63.326c6.517,2.593,13.488,4.075,20.746,4.075v306.805h350.731  V197.591c7.257,0,14.229-1.481,20.746-4.075c25.832-9.438,44.271-34.228,44.271-63.326  C496.382,129.37,496.356,128.534,496.318,127.692z"
   id="path2" />
<path
   style="fill:#F6A230;"
   d="M111.049,233.352v-66.177H80.633c-3.104,0-6.3-0.646-9.501-1.919l-0.401-0.16l-0.406-0.148  c-14.531-5.308-24.293-19.277-24.293-34.756c0-0.364,0.014-0.734,0.031-1.107l0.012-0.282c0.247-6.782,2.345-13.34,6.067-18.964  l0.455-0.689l0.418-0.712c7.341-12.521,23.291-30.606,57.579-45.668c37.387-16.423,86.308-24.749,145.404-24.749  s108.017,8.327,145.403,24.748c34.288,15.061,50.238,33.147,57.579,45.668l0.418,0.712l0.455,0.689  c3.722,5.624,5.82,12.183,6.067,18.964l0.012,0.282c0.017,0.373,0.031,0.743,0.031,1.107c0,15.481-9.762,29.449-24.293,34.756  l-0.406,0.148l-0.401,0.16c-3.201,1.273-6.397,1.919-9.501,1.919h-30.416V473.98H111.049V253.632"
   id="path4" />
<g
   id="g10">
	<path
   style="fill:#53180F;"
   d="M503.917,127.415c-0.5-13.701-4.733-26.97-12.242-38.386c-10.224-17.358-31.52-41.978-74.982-61.07   C374.457,9.407,320.391,0,255.999,0S137.541,9.407,95.306,27.958C51.844,47.05,30.548,71.67,20.324,89.029   c-7.51,11.416-11.743,24.684-12.239,38.315c-0.044,0.96-0.071,1.911-0.071,2.848c0,31.349,19.752,59.638,49.166,70.432   c5.2,2.059,10.506,3.43,15.851,4.098V512H438.97V204.721c5.344-0.668,10.651-2.039,15.851-4.098   c29.414-10.793,49.166-39.083,49.166-70.432C503.985,129.254,503.957,128.304,503.917,127.415z M449.5,186.374l-0.201,0.077   c-5.896,2.346-11.93,3.535-17.934,3.535h-7.604v306.806H88.237V189.987h-7.604c-6.005,0-12.039-1.189-17.934-3.535l-0.201-0.077   c-23.493-8.583-39.277-31.161-39.277-56.183c0-0.707,0.021-1.425,0.059-2.221c0.399-10.975,3.804-21.598,9.842-30.722l0.218-0.35   c14.401-24.563,64.928-81.691,222.659-81.691s208.258,57.128,222.66,81.69l0.218,0.35c6.038,9.124,9.442,19.747,9.845,30.793   c0.033,0.725,0.056,1.444,0.056,2.15C488.778,155.213,472.993,177.791,449.5,186.374z"
   id="path6" />
	<path
   style="fill:#53180F;"
   d="M473.521,128.525c-0.299-8.18-2.832-16.094-7.323-22.88l-0.657-1.054   c-7.91-13.489-24.927-32.903-61.08-48.784c-38.356-16.848-88.306-25.391-148.462-25.391s-110.105,8.543-148.462,25.39   c-36.153,15.881-53.17,35.296-61.078,48.781l-0.657,1.054c-4.493,6.789-7.026,14.703-7.323,22.84l-0.01,0.239   c-0.023,0.495-0.041,0.985-0.041,1.469c0,18.661,11.77,35.5,29.284,41.897l0.609,0.233c4.1,1.63,8.242,2.458,12.312,2.458h22.812   v58.573h15.208v-73.779h-38.02c-2.136,0-4.388-0.464-6.677-1.375l-1.022-0.391c-11.543-4.216-19.298-15.314-19.298-27.614   c0-0.244,0.011-0.493,0.024-0.787l0.014-0.324c0.196-5.386,1.859-10.588,4.812-15.049l1.089-1.748   c6.774-11.552,21.652-28.31,54.078-42.553c36.416-15.997,84.308-24.108,142.344-24.108s105.928,8.111,142.344,24.107   c32.425,14.243,47.305,31.001,54.08,42.555l1.089,1.749c2.95,4.457,4.614,9.66,4.812,15.088l0.014,0.324   c0.012,0.251,0.022,0.5,0.022,0.744c0,12.3-7.755,23.398-19.302,27.616l-1.005,0.384c-2.302,0.916-4.553,1.38-6.69,1.38h-38.02   v306.806h-15.211v-96.824h-15.208v96.824h-15.211v-56.265h-15.208v56.265H118.652V253.632h-15.208v227.953h305.107V174.78h22.812   c4.071,0,8.212-0.826,12.324-2.463l0.592-0.227c17.518-6.399,29.288-23.238,29.288-41.899c0-0.485-0.017-0.974-0.039-1.426   L473.521,128.525z"
   id="path8" />
</g>
<g
   id="g12">
</g>
<g
   id="g14">
</g>
<g
   id="g16">
</g>
<g
   id="g18">
</g>
<g
   id="g20">
</g>
<g
   id="g22">
</g>
<g
   id="g24">
</g>
<g
   id="g26">
</g>
<g
   id="g28">
</g>
<g
   id="g30">
</g>
<g
   id="g32">
</g>
<g
   id="g34">
</g>
<g
   id="g36">
</g>
<g
   id="g38">
</g>
<g
   id="g40">
</g>
<path
   d="M 254.72773,130.98287 -29.512953,415.22353 c -25.408468,25.40846 10.44821,60.51279 35.4805044,35.4805 L 118.74753,337.92402 l 18.89321,18.8932 171.46068,-171.46066 c 39.9126,-39.91265 -14.4611,-94.286335 -54.37369,-54.37369 z"
   id="path2362-3"
   style="fill:#9c663e;fill-opacity:1;stroke:#333333;stroke-width:14;stroke-miterlimit:4;stroke-dasharray:none;stroke-opacity:1"
   inkscape:connector-curvature="0" /><path
   d="M 254.72773,130.98288 83.266927,302.44345 c 18.124603,18.12459 36.249203,36.24918 54.373793,54.37379 L 309.10143,185.35655 c 39.91263,-39.91262 -14.4611,-94.286326 -54.3737,-54.37367 z"
   id="path2362"
   style="fill:#6dc1cc;fill-opacity:1;stroke:#333333;stroke-width:14;stroke-miterlimit:4;stroke-dasharray:none;stroke-opacity:1"
   inkscape:connector-curvature="0"
   sodipodi:nodetypes="cccsc" /><path
   inkscape:connector-curvature="0"
   id="path25"
   d="m 176.47699,308.23281 1.22237,-90.70151 11.31371,-11.31371 -1.22237,90.70152 z"
   style="opacity:0.72000002;fill:#ffffff;stroke-width:1.84950852"
   sodipodi:nodetypes="ccccc" /><path
   inkscape:connector-curvature="0"
   id="path25-3"
   d="m 197.0538,287.65601 1.22237,-90.70152 11.3137,-11.31371 -1.22236,90.70152 z"
   style="opacity:0.72000002;fill:#ffffff;stroke-width:1.84950852"
   sodipodi:nodetypes="ccccc" /><path
   d="M 254.72773,130.98288 83.266935,302.44344 c 18.124605,18.12459 36.249195,36.24919 54.373785,54.37379 L 309.10143,185.35655 c 39.91263,-39.91262 -14.4611,-94.286326 -54.3737,-54.37367 z"
   id="path2362-5"
   style="fill:none;fill-opacity:1;stroke:#333333;stroke-width:14;stroke-miterlimit:4;stroke-dasharray:none;stroke-opacity:1"
   inkscape:connector-curvature="0"
   sodipodi:nodetypes="cccsc" /></svg>